<svg id="Layer_1" data-name="Layer 1" xmlns="http://www.w3.org/2000/svg" viewBox="0 0 1395 611"><defs><style>.cls-1{fill:#3d3935;}.cls-2{fill:#418fde;}</style></defs><path class="cls-1" d="M1008.89,597.6H812A103.79,103.79,0,0,1,708.13,493.73v-6.61A103.81,103.81,0,0,1,812,383.25H965.92a64.21,64.21,0,1,1,0,128.42H815.31a21.25,21.25,0,1,1,0-42.49H965.92a21.72,21.72,0,1,0,0-43.44H812a61.44,61.44,0,0,0-61.37,61.38v6.61A61.45,61.45,0,0,0,812,555.11h196.89a21.25,21.25,0,1,1,0,42.49Z"/><path class="cls-1" d="M1373.66,597.84a21.25,21.25,0,0,1-21.25-21.25V487.35A61.44,61.44,0,0,0,1291,426H1177a61.44,61.44,0,0,0-61.38,61.37v89.24a21.25,21.25,0,1,1-42.49,0V487.35A103.79,103.79,0,0,1,1177,383.48h114a103.84,103.84,0,0,1,103.88,103.87v89.24A21.26,21.26,0,0,1,1373.66,597.84Z"/><path class="cls-1" d="M300.62,597.6H107.27a107.18,107.18,0,1,1,0-214.35H300.62a21.25,21.25,0,0,1,0,42.49H107.27a64.69,64.69,0,0,0,0,129.37H300.62a21.25,21.25,0,0,1,0,42.49Z"/><path class="cls-2" d="M609.54,29.9A146.59,146.59,0,0,0,588.2,49.65a9.34,9.34,0,0,0,2.27,14.18L824.17,200.7a9.08,9.08,0,0,0,13.24-5.1,150.09,150.09,0,0,0,6.2-28.62,9.39,9.39,0,0,0-4.5-9.17L619.61,29.27A9.05,9.05,0,0,0,609.54,29.9Z"/><path class="cls-2" d="M818.58,99.78c7.65,4.48,16.56-3.6,12.92-11.78A147.81,147.81,0,0,0,771,20.31,144.75,144.75,0,0,0,683,1c-8.8.9-11.25,12.76-3.59,17.25Z"/><path class="cls-2" d="M576.42,199.26c-7.65-4.49-16.56,3.6-12.92,11.77A147.83,147.83,0,0,0,624,278.73,144.67,144.67,0,0,0,712,298c8.8-.89,11.25-12.76,3.59-17.24Z"/><path class="cls-2" d="M785.46,269.14a147.15,147.15,0,0,0,21.34-19.75,9.33,9.33,0,0,0-2.27-14.18L570.83,98.34a9.08,9.08,0,0,0-13.24,5.1,150,150,0,0,0-6.2,28.61,9.38,9.38,0,0,0,4.5,9.17l219.5,128.55A9.07,9.07,0,0,0,785.46,269.14Z"/><path class="cls-2" d="M525.94,597.84A67.74,67.74,0,0,1,462.54,554l-39-103.51A38,38,0,0,0,388.23,426h-2.12a21.25,21.25,0,0,1,0-42.5h2.12a80.28,80.28,0,0,1,75.12,52l39,103.52a25.26,25.26,0,0,0,47.29-.06l38.58-103.28a80.26,80.26,0,0,1,75.19-52.17h2a21.25,21.25,0,0,1,0,42.5h-2A37.94,37.94,0,0,0,628,450.53L589.4,553.8a67.75,67.75,0,0,1-63.46,44Z"/></svg>